<svg width="27" height="27" viewBox="0 0 27 27" fill="none" xmlns="http://www.w3.org/2000/svg">
<path d="M7.45829 11.9895H5.04163C2.11746 11.9895 0.510376 10.3825 0.510376 7.45829V5.04163C0.510376 2.11746 2.11746 0.510376 5.04163 0.510376H7.45829C10.3825 0.510376 11.9895 2.11746 11.9895 5.04163V7.45829C11.9895 10.3825 10.3825 11.9895 7.45829 11.9895ZM5.04163 2.32288C3.13246 2.32288 2.32288 3.13246 2.32288 5.04163V7.45829C2.32288 9.36746 3.13246 10.177 5.04163 10.177H7.45829C9.36746 10.177 10.177 9.36746 10.177 7.45829V5.04163C10.177 3.13246 9.36746 2.32288 7.45829 2.32288H5.04163Z" fill="#787486"/>
<path d="M21.9583 11.9895H19.5416C16.6175 11.9895 15.0104 10.3825 15.0104 7.45829V5.04163C15.0104 2.11746 16.6175 0.510376 19.5416 0.510376H21.9583C24.8825 0.510376 26.4895 2.11746 26.4895 5.04163V7.45829C26.4895 10.3825 24.8825 11.9895 21.9583 11.9895ZM19.5416 2.32288C17.6325 2.32288 16.8229 3.13246 16.8229 5.04163V7.45829C16.8229 9.36746 17.6325 10.177 19.5416 10.177H21.9583C23.8675 10.177 24.677 9.36746 24.677 7.45829V5.04163C24.677 3.13246 23.8675 2.32288 21.9583 2.32288H19.5416Z" fill="#787486"/>
<path d="M21.9583 26.4895H19.5416C16.6175 26.4895 15.0104 24.8825 15.0104 21.9583V19.5416C15.0104 16.6175 16.6175 15.0104 19.5416 15.0104H21.9583C24.8825 15.0104 26.4895 16.6175 26.4895 19.5416V21.9583C26.4895 24.8825 24.8825 26.4895 21.9583 26.4895ZM19.5416 16.8229C17.6325 16.8229 16.8229 17.6325 16.8229 19.5416V21.9583C16.8229 23.8675 17.6325 24.677 19.5416 24.677H21.9583C23.8675 24.677 24.677 23.8675 24.677 21.9583V19.5416C24.677 17.6325 23.8675 16.8229 21.9583 16.8229H19.5416Z" fill="#787486"/>
<path d="M7.45829 26.4895H5.04163C2.11746 26.4895 0.510376 24.8825 0.510376 21.9583V19.5416C0.510376 16.6175 2.11746 15.0104 5.04163 15.0104H7.45829C10.3825 15.0104 11.9895 16.6175 11.9895 19.5416V21.9583C11.9895 24.8825 10.3825 26.4895 7.45829 26.4895ZM5.04163 16.8229C3.13246 16.8229 2.32288 17.6325 2.32288 19.5416V21.9583C2.32288 23.8675 3.13246 24.677 5.04163 24.677H7.45829C9.36746 24.677 10.177 23.8675 10.177 21.9583V19.5416C10.177 17.6325 9.36746 16.8229 7.45829 16.8229H5.04163Z" fill="#787486"/>
</svg>
