<svg width="23" height="23" viewBox="0 0 23 23" fill="none" xmlns="http://www.w3.org/2000/svg">
<circle cx="11.5" cy="11.5" r="11" stroke="#787486"/>
<path d="M10.7848 18V8.18182H12.696V18H10.7848ZM11.75 6.6669C11.4176 6.6669 11.1321 6.55611 10.8935 6.33452C10.6591 6.10866 10.5419 5.8402 10.5419 5.52912C10.5419 5.21378 10.6591 4.94531 10.8935 4.72372C11.1321 4.49787 11.4176 4.38494 11.75 4.38494C12.0824 4.38494 12.3658 4.49787 12.6001 4.72372C12.8388 4.94531 12.9581 5.21378 12.9581 5.52912C12.9581 5.8402 12.8388 6.10866 12.6001 6.33452C12.3658 6.55611 12.0824 6.6669 11.75 6.6669Z" fill="#787486"/>
</svg>
