<svg width="39" height="39" viewBox="0 0 39 39" fill="none" xmlns="http://www.w3.org/2000/svg">
<path d="M26.4562 12.5437C26.2819 12.368 26.0746 12.2285 25.8461 12.1333C25.6176 12.0381 25.3725 11.9891 25.125 11.9891C24.8775 11.9891 24.6324 12.0381 24.4039 12.1333C24.1754 12.2285 23.9681 12.368 23.7937 12.5437L19.5 16.8562L15.2062 12.5437C14.8532 12.1907 14.3743 11.9923 13.875 11.9923C13.3757 11.9923 12.8968 12.1907 12.5437 12.5437C12.1907 12.8968 11.9923 13.3757 11.9923 13.875C11.9923 14.3743 12.1907 14.8532 12.5437 15.2062L16.8562 19.5L12.5437 23.7937C12.368 23.9681 12.2285 24.1754 12.1333 24.4039C12.0381 24.6324 11.9891 24.8775 11.9891 25.125C11.9891 25.3725 12.0381 25.6176 12.1333 25.8461C12.2285 26.0746 12.368 26.2819 12.5437 26.4562C12.7181 26.632 12.9254 26.7715 13.1539 26.8667C13.3824 26.9619 13.6275 27.0109 13.875 27.0109C14.1225 27.0109 14.3676 26.9619 14.5961 26.8667C14.8246 26.7715 15.0319 26.632 15.2062 26.4562L19.5 22.1437L23.7937 26.4562C23.9681 26.632 24.1754 26.7715 24.4039 26.8667C24.6324 26.9619 24.8775 27.0109 25.125 27.0109C25.3725 27.0109 25.6176 26.9619 25.8461 26.8667C26.0746 26.7715 26.2819 26.632 26.4562 26.4562C26.632 26.2819 26.7715 26.0746 26.8667 25.8461C26.9619 25.6176 27.0109 25.3725 27.0109 25.125C27.0109 24.8775 26.9619 24.6324 26.8667 24.4039C26.7715 24.1754 26.632 23.9681 26.4562 23.7937L22.1437 19.5L26.4562 15.2062C26.632 15.0319 26.7715 14.8246 26.8667 14.5961C26.9619 14.3676 27.0109 14.1225 27.0109 13.875C27.0109 13.6275 26.9619 13.3824 26.8667 13.1539C26.7715 12.9254 26.632 12.7181 26.4562 12.5437V12.5437ZM32.7562 6.24375C31.0266 4.45293 28.9577 3.02451 26.6701 2.04185C24.3825 1.05918 21.9221 0.541934 19.4325 0.5203C16.9429 0.498666 14.4739 0.973073 12.1696 1.91584C9.8653 2.85861 7.77183 4.25085 6.01134 6.01134C4.25085 7.77183 2.85861 9.8653 1.91584 12.1696C0.973073 14.4739 0.498666 16.9429 0.5203 19.4325C0.541934 21.9221 1.05918 24.3825 2.04185 26.6701C3.02451 28.9577 4.45293 31.0266 6.24375 32.7562C7.97337 34.5471 10.0423 35.9755 12.3299 36.9581C14.6175 37.9408 17.0779 38.4581 19.5675 38.4797C22.0571 38.5013 24.5261 38.0269 26.8304 37.0842C29.1347 36.1414 31.2282 34.7491 32.9887 32.9887C34.7491 31.2282 36.1414 29.1347 37.0842 26.8304C38.0269 24.5261 38.5013 22.0571 38.4797 19.5675C38.4581 17.0779 37.9408 14.6175 36.9581 12.3299C35.9755 10.0423 34.5471 7.97337 32.7562 6.24375V6.24375ZM30.1125 30.1125C27.6601 32.5676 24.4323 34.0965 20.979 34.4387C17.5257 34.7809 14.0606 33.9151 11.1741 31.9889C8.28757 30.0628 6.15817 27.1954 5.1487 23.8753C4.13922 20.5552 4.31213 16.9878 5.63796 13.7808C6.96379 10.5739 9.36051 7.9259 12.4198 6.28792C15.4791 4.64995 19.0116 4.12336 22.4156 4.79788C25.8196 5.4724 28.8845 7.30629 31.0879 9.98711C33.2914 12.6679 34.4973 16.0298 34.5 19.5C34.5067 21.4712 34.1224 23.4241 33.3692 25.2457C32.6161 27.0674 31.5092 28.7215 30.1125 30.1125V30.1125Z" fill="#555555" fill-opacity="0.8"/>
</svg>
