<svg width="114" height="51" viewBox="0 0 114 51" fill="none" xmlns="http://www.w3.org/2000/svg">
<path d="M56.5066 37V16H61.3666V37H56.5066ZM64.8504 37V33.85L72.9504 26.2C73.5904 25.62 74.0604 25.1 74.3604 24.64C74.6604 24.18 74.8604 23.76 74.9604 23.38C75.0804 23 75.1404 22.65 75.1404 22.33C75.1404 21.49 74.8504 20.85 74.2704 20.41C73.7104 19.95 72.8804 19.72 71.7804 19.72C70.9004 19.72 70.0804 19.89 69.3204 20.23C68.5804 20.57 67.9504 21.1 67.4304 21.82L63.8904 19.54C64.6904 18.34 65.8104 17.39 67.2504 16.69C68.6904 15.99 70.3504 15.64 72.2304 15.64C73.7904 15.64 75.1504 15.9 76.3104 16.42C77.4904 16.92 78.4004 17.63 79.0404 18.55C79.7004 19.47 80.0304 20.57 80.0304 21.85C80.0304 22.53 79.9404 23.21 79.7604 23.89C79.6004 24.55 79.2604 25.25 78.7404 25.99C78.2404 26.73 77.5004 27.56 76.5204 28.48L69.8004 34.81L68.8704 33.04H80.7204V37H64.8504ZM88.2785 37V19.96H81.5585V16H99.8585V19.96H93.1385V37H88.2785Z" fill="#555555"/>
<rect y="11" width="40" height="40" fill="#A996F6"/>
<rect x="12" width="40" height="40" fill="#FF9900" fill-opacity="0.6"/>
</svg>
