<svg width="39" height="39" viewBox="0 0 39 39" fill="none" xmlns="http://www.w3.org/2000/svg">
<path d="M19.5 0.75C15.7916 0.75 12.1665 1.84967 9.08307 3.90994C5.99964 5.97022 3.59641 8.89857 2.17727 12.3247C0.758124 15.7508 0.386812 19.5208 1.11028 23.1579C1.83376 26.7951 3.61952 30.136 6.24176 32.7583C8.86399 35.3805 12.2049 37.1663 15.8421 37.8897C19.4792 38.6132 23.2492 38.2419 26.6753 36.8227C30.1014 35.4036 33.0298 33.0004 35.0901 29.9169C37.1503 26.8335 38.25 23.2084 38.25 19.5C38.25 17.0377 37.765 14.5995 36.8228 12.3247C35.8805 10.0498 34.4994 7.98285 32.7583 6.24175C31.0172 4.50065 28.9502 3.11953 26.6753 2.17726C24.4005 1.23498 21.9623 0.75 19.5 0.75V0.75ZM19.5 34.5C16.5333 34.5 13.6332 33.6203 11.1665 31.972C8.69972 30.3238 6.77713 27.9811 5.64182 25.2403C4.5065 22.4994 4.20945 19.4834 4.78823 16.5736C5.36701 13.6639 6.79562 10.9912 8.89341 8.8934C10.9912 6.79561 13.6639 5.367 16.5737 4.78822C19.4834 4.20944 22.4994 4.50649 25.2403 5.64181C27.9812 6.77712 30.3238 8.69971 31.9721 11.1664C33.6203 13.6332 34.5 16.5333 34.5 19.5C34.5 23.4782 32.9197 27.2936 30.1066 30.1066C27.2936 32.9196 23.4783 34.5 19.5 34.5V34.5ZM27 17.625H12C11.5027 17.625 11.0258 17.8225 10.6742 18.1742C10.3226 18.5258 10.125 19.0027 10.125 19.5C10.125 19.9973 10.3226 20.4742 10.6742 20.8258C11.0258 21.1775 11.5027 21.375 12 21.375H27C27.4973 21.375 27.9742 21.1775 28.3258 20.8258C28.6775 20.4742 28.875 19.9973 28.875 19.5C28.875 19.0027 28.6775 18.5258 28.3258 18.1742C27.9742 17.8225 27.4973 17.625 27 17.625Z" fill="#555555" fill-opacity="0.8"/>
</svg>
